<svg width="350" height="70" viewBox="0 0 350 70" fill="none" xmlns="http://www.w3.org/2000/svg">
<path d="M105.273 20.439H111.864V49.6425H105.273V37.2531H94.2023V49.6425H87.6105V20.439H94.2023V31.6056H105.273V20.439Z" fill="white"/>
<path fill-rule="evenodd" clip-rule="evenodd" d="M148.486 41.4517C149.227 39.5499 149.598 37.343 149.598 34.8345C149.598 32.3248 149.221 30.1185 148.464 28.2161C147.708 26.3126 146.672 24.7124 145.356 23.4155C144.04 22.1187 142.5 21.1465 140.737 20.4978C138.972 19.8485 137.096 19.5239 135.108 19.5239C133.176 19.5239 131.334 19.8485 129.585 20.4978C127.835 21.1465 126.294 22.1187 124.965 23.4155C123.635 24.7124 122.577 26.3126 121.793 28.2161C121.009 30.1185 120.617 32.3248 120.617 34.8345C120.617 37.343 120.996 39.5499 121.752 41.4517C122.508 43.3552 123.543 44.9483 124.86 46.2304C126.175 47.5142 127.716 48.4793 129.48 49.1274C131.244 49.7767 133.12 50.1008 135.108 50.1008C137.152 50.1008 139.063 49.7767 140.841 49.1274C142.619 48.4793 144.152 47.5142 145.44 46.2304C146.728 44.9483 147.743 43.3552 148.486 41.4517ZM127.904 38.7244C127.554 37.5683 127.38 36.2715 127.38 34.8345C127.38 33.4247 127.554 32.135 127.904 30.9641C128.254 29.7944 128.759 28.7939 129.417 27.9624C130.074 27.1304 130.88 26.4817 131.832 26.0163C132.784 25.5515 133.876 25.3191 135.108 25.3191C136.312 25.3191 137.397 25.5444 138.364 25.9956C139.329 26.4456 140.142 27.0878 140.799 27.9192C141.457 28.7519 141.962 29.7518 142.312 30.9215C142.662 32.0918 142.837 33.3957 142.837 34.8345C142.837 36.2715 142.662 37.5683 142.312 38.7244C141.962 39.8811 141.457 40.8745 140.799 41.706C140.142 42.5386 139.329 43.179 138.364 43.6296C137.397 44.082 136.312 44.3079 135.108 44.3079C133.876 44.3079 132.784 44.082 131.832 43.6296C130.88 43.179 130.074 42.5386 129.417 41.706C128.759 40.8745 128.254 39.8811 127.904 38.7244Z" fill="white"/>
<path d="M166.075 44.4763C166.999 44.4763 167.761 44.3994 168.363 44.2433C168.965 44.0889 169.449 43.8778 169.812 43.6082C170.176 43.3415 170.428 43.0245 170.569 42.6579C170.709 42.2918 170.779 41.8826 170.779 41.4314C170.779 40.4734 170.33 39.6757 169.435 39.0423C168.538 38.4072 166.999 37.7242 164.815 36.9898C163.862 36.6527 162.91 36.2642 161.958 35.8278C161.006 35.3914 160.152 34.8414 159.396 34.1785C158.641 33.5162 158.024 32.7125 157.549 31.767C157.072 30.8232 156.835 29.6748 156.835 28.3212C156.835 26.9676 157.087 25.7482 157.59 24.6631C158.095 23.5774 158.809 22.6549 159.733 21.8926C160.657 21.131 161.776 20.5473 163.092 20.1375C164.409 19.7295 165.892 19.5237 167.545 19.5237C169.505 19.5237 171.199 19.7366 172.627 20.1588C174.054 20.5816 175.231 21.0476 176.155 21.555L174.265 26.7565C173.453 26.3337 172.549 25.9599 171.556 25.6353C170.562 25.3118 169.365 25.1486 167.965 25.1486C166.397 25.1486 165.27 25.3686 164.584 25.805C163.898 26.242 163.554 26.912 163.554 27.8132C163.554 28.3496 163.681 28.8014 163.933 29.1668C164.184 29.5334 164.542 29.8646 165.003 30.1609C165.466 30.4565 165.998 30.725 166.6 30.9639C167.201 31.204 167.867 31.45 168.595 31.7037C170.107 32.2684 171.423 32.8249 172.543 33.3749C173.663 33.9248 174.594 34.5664 175.337 35.2991C176.078 36.0318 176.631 36.8922 176.996 37.8792C177.359 38.8667 177.541 40.0642 177.541 41.4728C177.541 44.2078 176.589 46.3295 174.685 47.8375C172.781 49.3466 169.91 50.1012 166.075 50.1012C164.787 50.1012 163.624 50.0231 162.588 49.8682C161.552 49.7121 160.636 49.5222 159.837 49.2969C159.04 49.0716 158.353 48.8321 157.779 48.5784C157.205 48.3242 156.722 48.0853 156.33 47.8588L158.179 42.6153C159.046 43.0955 160.117 43.5248 161.392 43.9044C162.665 44.2858 164.227 44.4763 166.075 44.4763" fill="white"/>
<path d="M206.408 20.2018V25.8267H197.63V49.5085H191.078V25.8267H182.298V20.2018H206.408Z" fill="white"/>
<path d="M213.686 49.5092H220.238V20.2019H213.686V49.5092Z" fill="white"/>
<path d="M249.568 49.5085C247.692 46.1538 245.662 42.8416 243.478 39.5703C241.293 36.2996 238.969 33.2127 236.506 30.3086V49.5085H230.037V20.2018H235.371C236.294 21.1314 237.317 22.2733 238.437 23.6269C239.557 24.9805 240.697 26.4258 241.86 27.9621C243.022 29.4984 244.177 31.0915 245.325 32.7402C246.473 34.3895 247.551 35.9749 248.559 37.4976V20.2018H255.07V49.5085H249.568" fill="white"/>
<path d="M279.064 25.2768C276.013 25.2768 273.807 26.1295 272.449 27.835C271.091 29.541 270.413 31.8733 270.413 34.8348C270.413 36.2712 270.58 37.5763 270.916 38.746C271.252 39.9151 271.756 40.9227 272.428 41.7689C273.101 42.6152 273.94 43.271 274.948 43.7364C275.956 44.2012 277.131 44.4336 278.476 44.4336C279.203 44.4336 279.827 44.4194 280.346 44.3916C280.863 44.3638 281.318 44.3076 281.71 44.2224V34.0311H288.263V48.5363C287.478 48.8468 286.219 49.1774 284.482 49.5292C282.747 49.8811 280.604 50.0585 278.056 50.0585C275.872 50.0585 273.891 49.7196 272.113 49.0437C270.334 48.366 268.816 47.3802 267.555 46.0828C266.297 44.7866 265.323 43.1929 264.637 41.3041C263.95 39.4165 263.608 37.2593 263.608 34.8348C263.608 32.3813 263.986 30.2104 264.743 28.3211C265.498 26.4329 266.533 24.8315 267.85 23.5211C269.166 22.2101 270.713 21.2166 272.491 20.5401C274.269 19.863 276.166 19.5236 278.182 19.5236C279.554 19.5236 280.793 19.6164 281.899 19.7991C283.005 19.983 283.956 20.1941 284.755 20.4342C285.553 20.6731 286.212 20.9197 286.73 21.174C287.248 21.4277 287.618 21.6258 287.843 21.7665L285.953 27.052C285.056 26.573 284.027 26.1579 282.866 25.8049C281.703 25.4524 280.437 25.2768 279.064 25.2768" fill="white"/>
<path d="M297.431 49.5085V20.2018H317.087V25.7416H303.983V31.4925H315.617V36.9063H303.983V43.9688H318.054V49.5085H297.431Z" fill="white"/>
<path fill-rule="evenodd" clip-rule="evenodd" d="M344.526 22.21C342.202 20.6447 338.856 19.8629 334.488 19.8629C333.283 19.8629 331.918 19.9191 330.393 20.0326C328.867 20.1444 327.39 20.3431 325.962 20.6234V49.5084H332.513V38.808H335.748C336.309 39.4857 336.872 40.2396 337.435 41.0722C337.996 41.9037 338.567 42.7836 339.142 43.7144C339.719 44.6452 340.28 45.6043 340.828 46.5907C341.375 47.5777 341.917 48.5499 342.451 49.5084H349.776C349.272 48.4375 348.726 47.3453 348.139 46.2306C347.551 45.1177 346.941 44.0467 346.312 43.0178C345.681 41.9888 345.044 41.0019 344.4 40.0569C343.756 39.1125 343.141 38.274 342.552 37.5401C344.316 36.808 345.668 35.7992 346.605 34.5171C347.544 33.2345 348.012 31.5628 348.012 29.5055C348.012 26.2063 346.85 23.7747 344.526 22.21ZM333.585 25.5298C333.963 25.502 334.389 25.4878 334.865 25.4878C336.966 25.4878 338.554 25.7912 339.633 26.3961C340.711 27.004 341.25 28.0247 341.25 29.4629C341.25 30.9578 340.719 32.0157 339.654 32.6349C338.59 33.2558 336.825 33.5645 334.362 33.5645H332.513V25.6144C332.85 25.5872 333.207 25.5588 333.585 25.5298Z" fill="white"/>
<path fill-rule="evenodd" clip-rule="evenodd" d="M42.6273 0V20.8847L59.5 30.7526V8.60044L42.6273 0ZM0.000584537 0.00117356V32.774H54.8757L38.1796 23.5974L16.4302 23.5868V8.82107L0.000584537 0.00117356ZM42.6273 60.9413V46.3029L20.7101 46.2876C20.7306 46.385 3.73694 36.9642 3.73694 36.9642L59.5 37.2277V70L42.6273 60.9413ZM0.000584537 39.525L0 60.9413L16.4302 69.5411V49.1593L0.000584537 39.525Z" fill="white"/>
</svg>
