<svg version="1.1" id="Layer_1" xmlns="http://www.w3.org/2000/svg" xmlns:xlink="http://www.w3.org/1999/xlink" x="0px" y="0px"
	 viewBox="0 0 1166 234" xml:space="preserve">
<style type="text/css">
	.st0{fill:#673DE6;}
	.st1{fill-rule:evenodd;clip-rule:evenodd;fill:#673DE6;}
</style>
<path class="st0" d="M350.9,68.6h22V166h-22v-41.3H314V166h-22V68.6h22v37.2h36.9V68.6z"/>
<path class="st1" d="M495,138.7c2.5-6.3,3.7-13.7,3.7-22.1c0-8.4-1.3-15.7-3.8-22.1c-2.5-6.3-6-11.7-10.4-16
	c-4.4-4.3-9.5-7.6-15.4-9.7c-5.9-2.2-12.1-3.2-18.8-3.2c-6.4,0-12.6,1.1-18.4,3.2c-5.8,2.2-11,5.4-15.4,9.7c-4.4,4.3-8,9.7-10.6,16
	c-2.6,6.3-3.9,13.7-3.9,22.1c0,8.4,1.3,15.7,3.8,22.1c2.5,6.3,6,11.7,10.4,15.9c4.4,4.3,9.5,7.5,15.4,9.7c5.9,2.2,12.1,3.2,18.8,3.2
	c6.8,0,13.2-1.1,19.1-3.2c5.9-2.2,11-5.4,15.3-9.7C489.1,150.3,492.5,145,495,138.7z M426.3,129.6c-1.2-3.9-1.7-8.2-1.7-13
	c0-4.7,0.6-9,1.7-12.9c1.2-3.9,2.8-7.2,5-10c2.2-2.8,4.9-4.9,8.1-6.5c3.2-1.5,6.8-2.3,10.9-2.3c4,0,7.6,0.8,10.9,2.3
	c3.2,1.5,5.9,3.6,8.1,6.4c2.2,2.8,3.9,6.1,5,10c1.2,3.9,1.8,8.2,1.8,13c0,4.8-0.6,9.1-1.8,13c-1.2,3.9-2.9,7.2-5,9.9
	c-2.2,2.8-4.9,4.9-8.1,6.4c-3.2,1.5-6.8,2.3-10.9,2.3c-4.1,0-7.7-0.8-10.9-2.3c-3.2-1.5-5.9-3.6-8.1-6.4
	C429.2,136.7,427.5,133.4,426.3,129.6z"/>
<path class="st0" d="M553.6,148.8c3.1,0,5.6-0.3,7.6-0.8c2-0.5,3.6-1.2,4.8-2.1c1.2-0.9,2.1-1.9,2.5-3.2c0.5-1.2,0.7-2.6,0.7-4.1
	c0-3.2-1.5-5.9-4.5-8c-3-2.1-8.1-4.4-15.4-6.8c-3.2-1.1-6.3-2.4-9.5-3.9c-3.2-1.5-6-3.3-8.5-5.5c-2.5-2.2-4.6-4.9-6.2-8
	c-1.6-3.1-2.4-7-2.4-11.5s0.8-8.6,2.5-12.2c1.7-3.6,4.1-6.7,7.1-9.2c3.1-2.5,6.8-4.5,11.2-5.9c4.4-1.4,9.3-2,14.8-2
	c6.5,0,12.2,0.7,16.9,2.1c4.8,1.4,8.7,3,11.8,4.7l-6.3,17.3c-2.7-1.4-5.7-2.7-9-3.7c-3.3-1.1-7.3-1.6-12-1.6c-5.2,0-9,0.7-11.3,2.2
	c-2.3,1.5-3.4,3.7-3.4,6.7c0,1.8,0.4,3.3,1.3,4.5c0.8,1.2,2,2.3,3.6,3.3c1.5,1,3.3,1.9,5.3,2.7c2,0.8,4.2,1.6,6.7,2.5
	c5,1.9,9.4,3.7,13.2,5.6c3.7,1.8,6.8,4,9.3,6.4c2.5,2.4,4.3,5.3,5.5,8.6c1.2,3.3,1.8,7.3,1.8,12c0,9.1-3.2,16.2-9.5,21.2
	c-6.3,5-15.9,7.5-28.7,7.5c-4.3,0-8.2-0.3-11.6-0.8c-3.5-0.5-6.5-1.2-9.2-1.9c-2.7-0.8-4.9-1.5-6.9-2.4c-1.9-0.8-3.5-1.6-4.8-2.4
	l6.2-17.5c2.9,1.6,6.5,3,10.7,4.3C542.2,148.1,547.4,148.8,553.6,148.8z"/>
<path class="st0" d="M688,67.8v18.7h-29.3v78.9h-21.8V86.6h-29.3V67.8H688z"/>
<path class="st0" d="M712.3,165.5h21.8V67.8h-21.8V165.5z"/>
<path class="st0" d="M831.9,165.5c-6.3-11.2-13-22.2-20.3-33.1c-7.3-10.9-15-21.2-23.2-30.9v64h-21.6V67.8h17.8
	c3.1,3.1,6.5,6.9,10.2,11.4c3.7,4.5,7.5,9.3,11.4,14.5c3.9,5.1,7.7,10.4,11.6,15.9c3.8,5.5,7.4,10.8,10.8,15.9V67.8h21.7v97.7H831.9
	z"/>
<path class="st0" d="M930.2,84.8c-10.2,0-17.5,2.8-22,8.5c-4.5,5.7-6.8,13.5-6.8,23.3c0,4.8,0.6,9.1,1.7,13c1.1,3.9,2.8,7.3,5,10.1
	c2.2,2.8,5,5,8.4,6.6c3.4,1.5,7.3,2.3,11.8,2.3c2.4,0,4.5,0,6.2-0.1c1.7-0.1,3.2-0.3,4.5-0.6v-34h21.8v48.4c-2.6,1-6.8,2.1-12.6,3.3
	c-5.8,1.2-12.9,1.8-21.4,1.8c-7.3,0-13.9-1.1-19.8-3.4c-5.9-2.3-11-5.5-15.2-9.9c-4.2-4.3-7.4-9.6-9.7-15.9
	c-2.3-6.3-3.4-13.5-3.4-21.6c0-8.2,1.3-15.4,3.8-21.7c2.5-6.3,6-11.6,10.4-16c4.4-4.4,9.5-7.7,15.5-9.9c5.9-2.3,12.2-3.4,19-3.4
	c4.6,0,8.7,0.3,12.4,0.9c3.7,0.6,6.9,1.3,9.5,2.1c2.7,0.8,4.9,1.6,6.6,2.5c1.7,0.8,3,1.5,3.7,2l-6.3,17.6c-3-1.6-6.4-3-10.3-4.2
	C939,85.3,934.8,84.8,930.2,84.8z"/>
<path class="st0" d="M991.4,165.5V67.8h65.5v18.5h-43.7v19.2h38.8v18h-38.8v23.5h46.9v18.5H991.4z"/>
<path class="st1" d="M1148.4,74.5c-7.8-5.2-18.9-7.8-33.5-7.8c-4,0-8.6,0.2-13.6,0.6c-5.1,0.4-10,1-14.8,2v96.3h21.8v-35.7h10.8
	c1.9,2.3,3.8,4.8,5.6,7.5c1.9,2.8,3.8,5.7,5.7,8.8c1.9,3.1,3.8,6.3,5.6,9.6c1.8,3.3,3.6,6.5,5.4,9.7h24.4c-1.7-3.6-3.5-7.2-5.5-10.9
	c-2-3.7-4-7.3-6.1-10.7c-2.1-3.4-4.2-6.7-6.4-9.9c-2.2-3.1-4.2-5.9-6.2-8.4c5.9-2.4,10.4-5.8,13.5-10.1c3.1-4.3,4.7-9.8,4.7-16.7
	C1160,87.9,1156.2,79.7,1148.4,74.5z M1111.9,85.6c1.3-0.1,2.7-0.1,4.3-0.1c7,0,12.3,1,15.9,3c3.6,2,5.4,5.4,5.4,10.2
	c0,5-1.8,8.5-5.3,10.6c-3.6,2.1-9.4,3.1-17.6,3.1h-6.2V85.9C1109.5,85.8,1110.7,85.7,1111.9,85.6z"/>
<path class="st1" d="M142.1,0.5v69.6l56.2,32.9V29.2L142.1,0.5z M0,0.5v109.2h182.9l-55.7-30.6l-72.5,0V29.9L0,0.5z M142.1,203.6
	v-48.8L69,154.8c0.1,0.3-56.6-31.1-56.6-31.1l185.9,0.9v109.2L142.1,203.6z M0,132.2l0,71.4l54.8,28.7v-67.9L0,132.2z"/>
</svg>
